<?xml version="1.0" standalone="no"?>
<!DOCTYPE svg PUBLIC "-//W3C//DTD SVG 20010904//EN"
 "http://www.w3.org/TR/2001/REC-SVG-20010904/DTD/svg10.dtd">
<svg version="1.0" xmlns="http://www.w3.org/2000/svg"
 width="1280.000000pt" height="1054.000000pt" viewBox="0 0 1280.000000 1054.000000"
 preserveAspectRatio="xMidYMid meet">
<metadata>
Created by potrace 1.15, written by Peter Selinger 2001-2017
</metadata>
<g transform="translate(0.000000,1054.000000) scale(0.100000,-0.100000)"
fill="#000000" stroke="none">
<path d="M10063 10526 c-84 -27 -156 -97 -190 -185 -17 -44 -18 -182 -18
-2596 l0 -2550 23 -43 c13 -24 40 -63 61 -85 77 -85 80 -120 16 -174 -86 -71
-119 -192 -86 -310 22 -81 109 -167 192 -192 20 -6 112 -11 205 -11 93 0 179
-3 192 -6 l22 -6 0 -2166 0 -2166 85 124 85 124 -2 2042 -3 2041 510 5 c280 3
587 3 682 0 l173 -5 0 -2151 0 -2151 85 128 85 129 -3 2024 -2 2024 140 0
c247 1 322 19 397 97 58 59 83 124 83 213 -1 92 -24 144 -96 211 -33 31 -49
54 -49 70 0 26 55 109 71 109 6 0 26 33 45 73 l34 73 -2 2549 -3 2550 -21 46
c-31 66 -78 114 -142 146 l-57 28 -1235 2 c-1001 1 -1243 -1 -1277 -11z"/>
<path d="M5286 6985 c-602 -98 -1084 -530 -1220 -1095 -54 -222 -54 -445 1
-675 104 -439 446 -824 883 -995 58 -23 115 -45 128 -50 20 -9 22 -16 22 -88
0 -68 4 -84 25 -116 l25 -37 2 -1957 3 -1957 33 116 32 116 0 1845 c0 1830 0
1845 20 1863 24 22 40 75 40 132 l0 43 33 -8 c36 -8 318 -10 387 -2 l45 5 5
-66 c5 -62 29 -119 50 -119 7 0 9 -682 8 -1960 -2 -1077 0 -1956 3 -1952 4 4
19 48 33 99 l26 92 0 1859 c0 1844 0 1859 20 1877 26 23 40 75 40 150 l0 60
78 24 c235 74 501 253 661 445 187 223 288 446 332 726 17 113 7 384 -19 496
-64 273 -193 506 -392 704 -208 209 -471 350 -763 411 -134 28 -412 35 -541
14z"/>
<path d="M7783 6041 c-134 -7 -156 -15 -200 -81 l-23 -33 0 -1474 c0 -1089 3
-1480 11 -1496 7 -12 25 -37 40 -55 36 -40 37 -67 3 -88 -36 -24 -54 -65 -54
-127 0 -60 23 -104 73 -141 24 -18 47 -22 150 -26 l122 -5 5 -1240 5 -1240 48
70 47 70 0 1170 0 1170 308 -1 c169 0 344 -1 389 -2 l83 -2 2 -1225 3 -1225
43 62 42 63 0 1161 0 1161 113 5 c129 6 173 21 211 71 51 66 47 154 -10 216
-40 45 -43 70 -10 102 60 62 56 -54 54 1562 l-3 1474 -29 37 c-54 72 -32 69
-701 71 -330 1 -655 -1 -722 -4z"/>
<path d="M640 3794 c-219 -42 -424 -211 -535 -439 -56 -115 -83 -219 -98 -373
-20 -220 11 -378 115 -585 35 -71 48 -107 43 -124 -3 -13 -31 -51 -61 -84 -31
-34 -66 -82 -78 -108 -21 -46 -21 -47 -24 -1059 -1 -556 0 -1012 2 -1012 3 0
25 21 50 48 l46 47 0 941 0 940 28 45 c16 24 43 56 60 71 50 42 79 43 179 7
259 -94 235 -89 393 -89 158 0 130 -6 409 95 65 23 80 26 112 16 40 -12 113
-84 129 -127 7 -17 10 -384 10 -1010 0 -541 4 -984 8 -984 5 0 28 22 51 50
l42 49 -3 968 -3 968 -24 45 c-13 25 -45 68 -72 97 -79 84 -79 85 -9 234 92
197 104 249 105 459 0 132 -4 192 -17 245 -81 331 -278 565 -547 652 -46 14
-262 26 -311 17z"/>
<path d="M2895 3790 c-63 -13 -146 -47 -208 -84 -276 -166 -431 -497 -414
-880 7 -154 29 -237 106 -403 71 -151 71 -152 -7 -236 -61 -66 -76 -91 -90
-149 -9 -34 -12 -318 -12 -1040 l0 -992 50 49 50 49 0 939 c0 906 1 939 19
976 25 48 90 107 129 116 21 4 53 -2 104 -20 277 -101 250 -95 408 -95 158 0
131 -6 408 95 50 18 83 24 103 20 39 -9 86 -49 121 -104 l28 -45 0 -988 c0
-543 3 -988 8 -988 4 0 26 22 50 50 l43 49 -3 963 -3 963 -22 49 c-13 26 -47
75 -77 107 -30 32 -57 68 -61 79 -4 14 13 62 54 149 79 168 101 253 108 417
20 443 -196 808 -554 935 -65 24 -267 35 -338 19z"/>
</g>
</svg>
